<?xml version="1.0" standalone="no"?>
<!DOCTYPE svg PUBLIC "-//W3C//DTD SVG 20010904//EN"
 "http://www.w3.org/TR/2001/REC-SVG-20010904/DTD/svg10.dtd">
<svg version="1.0" xmlns="http://www.w3.org/2000/svg"
 width="941.000000pt" height="941.000000pt" viewBox="0 0 941.000000 941.000000"
 preserveAspectRatio="xMidYMid meet">
<metadata>
Created by potrace 1.11, written by Peter Selinger 2001-2013
</metadata>
<g transform="translate(0.000000,941.000000) scale(0.100000,-0.100000)"
fill="#000000" stroke="none">
<path d="M4390 9401 c-25 -4 -67 -15 -95 -25 -27 -10 -108 -26 -180 -37 -203
-29 -339 -74 -482 -158 -349 -203 -549 -530 -699 -1141 -25 -102 -57 -260 -70
-352 -26 -186 -33 -207 -74 -231 -41 -25 -113 -21 -347 17 -366 60 -497 71
-898 71 -369 -1 -517 -11 -714 -51 -260 -52 -449 -151 -577 -301 -111 -131
-179 -283 -208 -465 -8 -49 -20 -96 -26 -104 -8 -9 -12 -61 -12 -156 0 -130 4
-156 36 -283 19 -77 47 -195 61 -261 75 -357 226 -687 452 -991 100 -134 293
-343 413 -447 122 -105 523 -421 1060 -833 206 -159 385 -304 397 -322 35 -51
51 -118 63 -259 46 -526 185 -925 419 -1201 52 -61 163 -147 278 -216 43 -25
128 -88 188 -140 188 -161 297 -202 562 -212 562 -20 999 105 1417 405 587
421 834 923 886 1797 14 234 19 282 42 341 23 63 82 133 141 167 70 41 70 43
31 131 -38 87 -42 130 -18 165 9 12 60 51 113 86 54 36 106 80 120 100 13 19
31 35 41 35 9 0 43 -22 74 -50 68 -60 87 -66 145 -45 24 8 49 15 56 15 21 0
71 -58 103 -119 60 -114 50 -202 -36 -315 -120 -156 -186 -305 -252 -565 -36
-143 -46 -167 -98 -217 -51 -50 -101 -80 -216 -131 -138 -60 -140 -63 -130
-143 4 -36 8 -158 9 -271 l2 -206 33 -62 c41 -76 69 -100 181 -156 98 -50 129
-84 136 -150 9 -77 -32 -155 -82 -155 -14 0 -56 14 -95 31 -38 17 -75 29 -83
26 -7 -3 -51 -76 -98 -163 -155 -292 -291 -479 -554 -764 -227 -246 -451 -441
-986 -858 -135 -105 -252 -198 -260 -208 -13 -16 130 -16 2411 -9 1334 4 2427
9 2429 11 3 3 -4 13 -15 24 -13 13 -109 41 -299 89 -332 84 -546 148 -1032
309 -428 142 -506 176 -597 266 -72 71 -107 132 -141 245 -35 119 -61 163
-154 268 -47 54 -97 113 -109 130 -48 68 -46 176 6 288 57 121 136 181 256
193 l63 7 -28 70 c-46 115 -55 191 -34 307 19 108 17 170 -10 288 -12 55 -15
100 -11 165 3 50 8 138 12 197 5 84 3 121 -11 177 -17 69 -17 71 3 103 12 18
29 38 39 44 353 220 651 425 818 563 116 97 328 304 415 406 260 307 465 791
536 1265 21 145 30 516 15 666 -51 511 -224 890 -538 1184 -242 226 -543 369
-948 449 -221 44 -421 59 -880 66 -444 7 -434 6 -492 67 -17 18 -147 224 -288
458 -141 234 -291 477 -333 540 -85 129 -238 290 -336 354 -119 79 -266 127
-444 146 -51 6 -103 17 -115 25 -26 16 -285 28 -357 16z m-283 -3383 c49 -54
114 -120 240 -240 99 -94 162 -182 178 -250 13 -53 35 -62 120 -49 125 18 370
12 558 -14 67 -9 49 25 -59 111 -113 90 -144 140 -125 204 29 98 100 108 257
36 56 -25 108 -46 116 -46 29 0 38 24 38 107 0 104 14 123 90 123 84 0 137
-36 226 -152 79 -102 122 -133 229 -166 102 -31 111 -43 175 -227 75 -218 91
-300 97 -491 5 -165 4 -176 -21 -265 -34 -118 -75 -195 -192 -358 -33 -47 -41
-83 -54 -251 -26 -346 -149 -601 -424 -876 -155 -154 -240 -208 -313 -196 -34
5 -80 58 -135 157 -120 213 -267 392 -401 486 -37 26 -118 68 -180 94 -145 61
-201 89 -262 133 -27 19 -104 61 -171 92 -175 81 -215 110 -298 214 -116 146
-175 185 -278 186 -65 0 -138 -25 -138 -47 0 -8 16 -48 36 -88 77 -155 46
-224 -186 -415 -228 -189 -363 -372 -480 -652 -35 -86 -66 -132 -82 -122 -20
13 -109 213 -124 281 -35 155 -25 1884 11 2048 21 94 71 199 112 235 71 62
179 102 314 115 62 6 68 5 83 -17 9 -12 16 -42 16 -68 0 -55 -16 -73 -132
-144 -87 -53 -122 -90 -138 -144 -11 -39 -33 -192 -28 -197 2 -2 39 26 83 61
143 115 287 176 416 178 93 1 121 -15 159 -90 23 -46 25 -62 30 -238 l5 -189
52 47 c87 78 91 90 96 256 2 95 8 155 17 175 26 56 82 140 154 230 40 50 82
106 94 126 31 52 59 137 68 206 12 100 33 132 86 133 20 0 38 -12 65 -42z
m-172 -2587 c46 -6 138 -29 215 -55 142 -47 240 -73 380 -101 130 -26 184 -50
250 -112 125 -116 217 -339 166 -405 -7 -10 -25 -22 -40 -28 -36 -13 -625 -13
-696 0 -70 13 -149 50 -233 108 -61 41 -74 46 -121 46 -60 -1 -73 -7 -158 -72
-35 -26 -88 -59 -118 -72 -49 -22 -68 -25 -175 -24 -208 0 -313 36 -367 122
-19 31 -23 51 -23 122 0 98 15 158 53 214 37 55 97 82 210 96 133 17 189 33
305 90 103 51 188 78 242 79 17 1 66 -3 110 -8z"/>
<path d="M3876 4402 c-9 -14 70 -77 129 -103 42 -18 60 -21 126 -16 43 4 92
12 110 20 l33 13 -25 23 c-51 49 -105 65 -240 69 -81 3 -129 1 -133 -6z"/>
<path d="M3209 968 c-52 -56 -215 -233 -364 -393 -460 -495 -507 -546 -502
-551 7 -7 1238 -6 1245 1 3 3 -43 184 -102 403 -60 218 -122 449 -139 512 -17
63 -33 119 -37 123 -4 4 -49 -38 -101 -95z"/>
<path d="M4572 734 c-151 -39 -204 -76 -218 -150 -7 -36 13 -161 26 -169 14
-9 156 112 212 180 29 35 66 87 81 114 34 61 34 61 -101 25z"/>
</g>
</svg>
